<svg width="250" height="190" viewBox="0 0 250 190" fill="none" xmlns="http://www.w3.org/2000/svg">
<rect x="125" y="57.333" width="100" height="120" fill="#591C1C"/>
<rect x="22" y="57.333" width="100" height="120" fill="#FF3333"/>
<path d="M126.5 28.3333V9.33331C126.5 9.33331 169 6.33336 171 9.33331C173 12.3333 171 57.3333 171 57.3333H151C151 57.3333 153.5 29.3333 151 28.3333C148.5 27.3333 126.5 28.3333 126.5 28.3333Z" fill="#591C1C"/>
<path d="M121.391 28.6663V9.66631C121.391 9.66631 78.8906 6.66637 76.8906 9.66631C74.8906 12.6663 76.8906 57.6663 76.8906 57.6663H96.8906C96.8906 57.6663 94.3906 29.6663 96.8906 28.6663C99.3906 27.6663 121.391 28.6663 121.391 28.6663Z" fill="#FF3333"/>
<circle cx="103.5" cy="117.5" r="22.5" fill="white"/>
<ellipse cx="104" cy="118.5" rx="20" ry="19.5" fill="#591C1C"/>
<rect x="111" y="110" width="21" height="16" fill="#591C1C"/>
<path d="M98.6701 109.749C97.1012 112.307 91.2317 117.859 88.7898 114.953C87.7427 111.495 89.0797 111.611 89.98 108.995C92.2174 106.495 93.7282 104.606 96.4601 104.169C99.1919 103.733 100.239 107.191 98.6701 109.749Z" fill="white"/>
</svg>
